<mxfile host="app.diagrams.net" agent="Mozilla/5.0 (Windows NT 10.0; Win64; x64) AppleWebKit/537.36 (KHTML, like Gecko) Chrome/131.0.0.0 Safari/537.36 Edg/131.0.0.0" version="24.8.3">
  <diagram name="Página-1" id="zYCfNSeHl2QsqTmiDnlr">
    <mxGraphModel dx="872" dy="469" grid="1" gridSize="10" guides="1" tooltips="1" connect="1" arrows="1" fold="1" page="1" pageScale="1" pageWidth="827" pageHeight="1169" math="0" shadow="0">
      <root>
        <mxCell id="0" />
        <mxCell id="1" parent="0" />
        <mxCell id="PNCabyUsnHT04Rcjq1vU-1" value="" style="ellipse;whiteSpace=wrap;html=1;aspect=fixed;fillColor=#d5e8d4;strokeColor=#82b366;" parent="1" vertex="1">
          <mxGeometry x="560" y="90" width="40" height="40" as="geometry" />
        </mxCell>
        <mxCell id="PNCabyUsnHT04Rcjq1vU-7" style="edgeStyle=orthogonalEdgeStyle;rounded=0;orthogonalLoop=1;jettySize=auto;html=1;exitX=0.5;exitY=1;exitDx=0;exitDy=0;exitPerimeter=0;entryX=0.5;entryY=0;entryDx=0;entryDy=0;" parent="1" source="PNCabyUsnHT04Rcjq1vU-2" target="PNCabyUsnHT04Rcjq1vU-4" edge="1">
          <mxGeometry relative="1" as="geometry" />
        </mxCell>
        <mxCell id="PNCabyUsnHT04Rcjq1vU-2" value="Nota[0]&lt;div&gt;Nota[1]&lt;/div&gt;" style="shape=card;whiteSpace=wrap;html=1;fillColor=#fff2cc;strokeColor=#d6b656;" parent="1" vertex="1">
          <mxGeometry x="540" y="150" width="80" height="60" as="geometry" />
        </mxCell>
        <mxCell id="PNCabyUsnHT04Rcjq1vU-3" style="edgeStyle=orthogonalEdgeStyle;rounded=0;orthogonalLoop=1;jettySize=auto;html=1;exitX=0.5;exitY=1;exitDx=0;exitDy=0;entryX=0.5;entryY=0;entryDx=0;entryDy=0;entryPerimeter=0;" parent="1" source="PNCabyUsnHT04Rcjq1vU-1" target="PNCabyUsnHT04Rcjq1vU-2" edge="1">
          <mxGeometry relative="1" as="geometry" />
        </mxCell>
        <mxCell id="PNCabyUsnHT04Rcjq1vU-6" style="edgeStyle=orthogonalEdgeStyle;rounded=0;orthogonalLoop=1;jettySize=auto;html=1;exitX=0;exitY=0.5;exitDx=0;exitDy=0;entryX=0.5;entryY=0;entryDx=0;entryDy=0;" parent="1" source="PNCabyUsnHT04Rcjq1vU-4" target="PNCabyUsnHT04Rcjq1vU-5" edge="1">
          <mxGeometry relative="1" as="geometry" />
        </mxCell>
        <mxCell id="PNCabyUsnHT04Rcjq1vU-8" value="V" style="edgeLabel;html=1;align=center;verticalAlign=middle;resizable=0;points=[];" parent="PNCabyUsnHT04Rcjq1vU-6" vertex="1" connectable="0">
          <mxGeometry x="-0.3535" y="-3" relative="1" as="geometry">
            <mxPoint as="offset" />
          </mxGeometry>
        </mxCell>
        <mxCell id="PNCabyUsnHT04Rcjq1vU-11" style="edgeStyle=orthogonalEdgeStyle;rounded=0;orthogonalLoop=1;jettySize=auto;html=1;exitX=1;exitY=0.5;exitDx=0;exitDy=0;entryX=1;entryY=0.5;entryDx=0;entryDy=0;" parent="1" source="PNCabyUsnHT04Rcjq1vU-4" target="PNCabyUsnHT04Rcjq1vU-9" edge="1">
          <mxGeometry relative="1" as="geometry" />
        </mxCell>
        <mxCell id="PNCabyUsnHT04Rcjq1vU-62" value="F" style="edgeLabel;html=1;align=center;verticalAlign=middle;resizable=0;points=[];" parent="PNCabyUsnHT04Rcjq1vU-11" vertex="1" connectable="0">
          <mxGeometry x="-0.4703" y="3" relative="1" as="geometry">
            <mxPoint as="offset" />
          </mxGeometry>
        </mxCell>
        <mxCell id="PNCabyUsnHT04Rcjq1vU-4" value="Nota[1] &amp;lt; 0 || Nota[1] &amp;gt; 10 || Nota[0] &amp;lt; 0 || Nota[0] &amp;gt; 10" style="rhombus;whiteSpace=wrap;html=1;fillColor=#ffe6cc;strokeColor=#d79b00;" parent="1" vertex="1">
          <mxGeometry x="505" y="226" width="150" height="140" as="geometry" />
        </mxCell>
        <mxCell id="PNCabyUsnHT04Rcjq1vU-10" style="edgeStyle=orthogonalEdgeStyle;rounded=0;orthogonalLoop=1;jettySize=auto;html=1;exitX=0.5;exitY=0;exitDx=0;exitDy=0;entryX=0;entryY=0.5;entryDx=0;entryDy=0;" parent="1" source="PNCabyUsnHT04Rcjq1vU-5" target="PNCabyUsnHT04Rcjq1vU-9" edge="1">
          <mxGeometry relative="1" as="geometry">
            <Array as="points">
              <mxPoint x="470" y="420" />
            </Array>
          </mxGeometry>
        </mxCell>
        <mxCell id="PNCabyUsnHT04Rcjq1vU-5" value="&quot;Notas inválidas, digite novamente!&quot;" style="shape=document;whiteSpace=wrap;html=1;boundedLbl=1;fillColor=#dae8fc;strokeColor=#6c8ebf;" parent="1" vertex="1">
          <mxGeometry x="410" y="330" width="120" height="80" as="geometry" />
        </mxCell>
        <mxCell id="PNCabyUsnHT04Rcjq1vU-13" style="edgeStyle=orthogonalEdgeStyle;rounded=0;orthogonalLoop=1;jettySize=auto;html=1;exitX=0.5;exitY=1;exitDx=0;exitDy=0;entryX=0.5;entryY=0;entryDx=0;entryDy=0;" parent="1" source="PNCabyUsnHT04Rcjq1vU-9" target="PNCabyUsnHT04Rcjq1vU-12" edge="1">
          <mxGeometry relative="1" as="geometry" />
        </mxCell>
        <mxCell id="PNCabyUsnHT04Rcjq1vU-9" value="" style="ellipse;whiteSpace=wrap;html=1;aspect=fixed;fillColor=#ffe6cc;strokeColor=#d79b00;" parent="1" vertex="1">
          <mxGeometry x="560" y="400" width="40" height="40" as="geometry" />
        </mxCell>
        <mxCell id="PNCabyUsnHT04Rcjq1vU-16" style="edgeStyle=orthogonalEdgeStyle;rounded=0;orthogonalLoop=1;jettySize=auto;html=1;exitX=0.5;exitY=1;exitDx=0;exitDy=0;entryX=0.5;entryY=0;entryDx=0;entryDy=0;" parent="1" source="PNCabyUsnHT04Rcjq1vU-12" target="PNCabyUsnHT04Rcjq1vU-15" edge="1">
          <mxGeometry relative="1" as="geometry" />
        </mxCell>
        <mxCell id="PNCabyUsnHT04Rcjq1vU-12" value="Nota[1] &amp;lt; 0 || Nota[1] &amp;gt; 10 || Nota[0] &amp;lt; 0 || Nota[0] &amp;gt; 10" style="rhombus;whiteSpace=wrap;html=1;fillColor=#ffe6cc;strokeColor=#d79b00;" parent="1" vertex="1">
          <mxGeometry x="505" y="460" width="150" height="140" as="geometry" />
        </mxCell>
        <mxCell id="PNCabyUsnHT04Rcjq1vU-14" style="edgeStyle=orthogonalEdgeStyle;rounded=0;orthogonalLoop=1;jettySize=auto;html=1;exitX=0;exitY=0.5;exitDx=0;exitDy=0;entryX=0;entryY=0;entryDx=0;entryDy=30;entryPerimeter=0;" parent="1" source="PNCabyUsnHT04Rcjq1vU-12" target="PNCabyUsnHT04Rcjq1vU-2" edge="1">
          <mxGeometry relative="1" as="geometry">
            <Array as="points">
              <mxPoint x="390" y="530" />
              <mxPoint x="390" y="180" />
            </Array>
          </mxGeometry>
        </mxCell>
        <mxCell id="PNCabyUsnHT04Rcjq1vU-15" value="" style="ellipse;whiteSpace=wrap;html=1;aspect=fixed;fillColor=#f8cecc;strokeColor=#b85450;" parent="1" vertex="1">
          <mxGeometry x="560" y="620" width="40" height="40" as="geometry" />
        </mxCell>
        <mxCell id="PNCabyUsnHT04Rcjq1vU-17" value="Entrada_Notas" style="text;html=1;align=center;verticalAlign=middle;resizable=0;points=[];autosize=1;strokeColor=none;fillColor=none;fontSize=23;fontStyle=1" parent="1" vertex="1">
          <mxGeometry x="490" y="28" width="180" height="40" as="geometry" />
        </mxCell>
        <mxCell id="PNCabyUsnHT04Rcjq1vU-18" value="Entrada: int Nota&lt;div&gt;Saída: Nada&lt;/div&gt;" style="text;html=1;align=center;verticalAlign=middle;resizable=0;points=[];autosize=1;strokeColor=none;fillColor=none;" parent="1" vertex="1">
          <mxGeometry x="525" y="55" width="110" height="40" as="geometry" />
        </mxCell>
        <mxCell id="PNCabyUsnHT04Rcjq1vU-42" style="edgeStyle=orthogonalEdgeStyle;rounded=0;orthogonalLoop=1;jettySize=auto;html=1;exitX=0.5;exitY=1;exitDx=0;exitDy=0;entryX=0.5;entryY=0;entryDx=0;entryDy=0;" parent="1" source="PNCabyUsnHT04Rcjq1vU-39" target="PNCabyUsnHT04Rcjq1vU-41" edge="1">
          <mxGeometry relative="1" as="geometry" />
        </mxCell>
        <mxCell id="PNCabyUsnHT04Rcjq1vU-39" value="" style="ellipse;whiteSpace=wrap;html=1;aspect=fixed;fillColor=#d5e8d4;strokeColor=#82b366;" parent="1" vertex="1">
          <mxGeometry x="110" y="65" width="40" height="40" as="geometry" />
        </mxCell>
        <mxCell id="PNCabyUsnHT04Rcjq1vU-40" value="MAIN" style="text;html=1;align=center;verticalAlign=middle;resizable=0;points=[];autosize=1;strokeColor=none;fillColor=none;fontSize=22;fontStyle=1" parent="1" vertex="1">
          <mxGeometry x="90" y="30" width="80" height="40" as="geometry" />
        </mxCell>
        <mxCell id="PNCabyUsnHT04Rcjq1vU-44" style="edgeStyle=orthogonalEdgeStyle;rounded=0;orthogonalLoop=1;jettySize=auto;html=1;exitX=0.5;exitY=1;exitDx=0;exitDy=0;entryX=0.5;entryY=0;entryDx=0;entryDy=0;" parent="1" source="PNCabyUsnHT04Rcjq1vU-41" target="PNCabyUsnHT04Rcjq1vU-43" edge="1">
          <mxGeometry relative="1" as="geometry" />
        </mxCell>
        <mxCell id="PNCabyUsnHT04Rcjq1vU-41" value="Entrada_Notas(Nota)" style="rounded=0;whiteSpace=wrap;html=1;fillColor=#e1d5e7;strokeColor=#9673a6;" parent="1" vertex="1">
          <mxGeometry x="67.5" y="120" width="125" height="30" as="geometry" />
        </mxCell>
        <mxCell id="PNCabyUsnHT04Rcjq1vU-46" style="edgeStyle=orthogonalEdgeStyle;rounded=0;orthogonalLoop=1;jettySize=auto;html=1;exitX=0.5;exitY=1;exitDx=0;exitDy=0;entryX=0.5;entryY=0;entryDx=0;entryDy=0;" parent="1" source="PNCabyUsnHT04Rcjq1vU-43" target="PNCabyUsnHT04Rcjq1vU-45" edge="1">
          <mxGeometry relative="1" as="geometry" />
        </mxCell>
        <mxCell id="PNCabyUsnHT04Rcjq1vU-43" value="Media = Media_Notas(Notas)" style="rounded=0;whiteSpace=wrap;html=1;fillColor=#e1d5e7;strokeColor=#9673a6;" parent="1" vertex="1">
          <mxGeometry x="43.75" y="165" width="172.5" height="35" as="geometry" />
        </mxCell>
        <mxCell id="PNCabyUsnHT04Rcjq1vU-48" style="edgeStyle=orthogonalEdgeStyle;rounded=0;orthogonalLoop=1;jettySize=auto;html=1;exitX=0.5;exitY=1;exitDx=0;exitDy=0;entryX=0.5;entryY=0;entryDx=0;entryDy=0;" parent="1" source="PNCabyUsnHT04Rcjq1vU-45" target="PNCabyUsnHT04Rcjq1vU-47" edge="1">
          <mxGeometry relative="1" as="geometry" />
        </mxCell>
        <mxCell id="PNCabyUsnHT04Rcjq1vU-45" value="Conceito = Conceito_Media(Media)" style="rounded=0;whiteSpace=wrap;html=1;fillColor=#e1d5e7;strokeColor=#9673a6;" parent="1" vertex="1">
          <mxGeometry x="26.88" y="218" width="206.25" height="35" as="geometry" />
        </mxCell>
        <mxCell id="PNCabyUsnHT04Rcjq1vU-47" value="&quot; Sua média foi: &quot;Media&lt;div&gt;&quot; Seu conceito foi: &quot;Conceito&lt;/div&gt;" style="shape=document;whiteSpace=wrap;html=1;boundedLbl=1;fillColor=#dae8fc;strokeColor=#6c8ebf;" parent="1" vertex="1">
          <mxGeometry x="50.010000000000005" y="270" width="159.99" height="80" as="geometry" />
        </mxCell>
        <mxCell id="PNCabyUsnHT04Rcjq1vU-53" style="edgeStyle=orthogonalEdgeStyle;rounded=0;orthogonalLoop=1;jettySize=auto;html=1;exitX=0.5;exitY=1;exitDx=0;exitDy=0;" parent="1" source="PNCabyUsnHT04Rcjq1vU-49" target="PNCabyUsnHT04Rcjq1vU-52" edge="1">
          <mxGeometry relative="1" as="geometry" />
        </mxCell>
        <mxCell id="PNCabyUsnHT04Rcjq1vU-49" value="" style="ellipse;whiteSpace=wrap;html=1;aspect=fixed;fillColor=#d5e8d4;strokeColor=#82b366;" parent="1" vertex="1">
          <mxGeometry x="152.5" y="440" width="40" height="40" as="geometry" />
        </mxCell>
        <mxCell id="PNCabyUsnHT04Rcjq1vU-50" value="Media_Notas" style="text;html=1;align=center;verticalAlign=middle;resizable=0;points=[];autosize=1;strokeColor=none;fillColor=none;fontSize=23;fontStyle=1" parent="1" vertex="1">
          <mxGeometry x="92.5" y="370" width="160" height="40" as="geometry" />
        </mxCell>
        <mxCell id="PNCabyUsnHT04Rcjq1vU-51" value="Entrada: int Nota&lt;div&gt;Saída: Media&lt;/div&gt;" style="text;html=1;align=center;verticalAlign=middle;resizable=0;points=[];autosize=1;strokeColor=none;fillColor=none;" parent="1" vertex="1">
          <mxGeometry x="117.5" y="400" width="110" height="40" as="geometry" />
        </mxCell>
        <mxCell id="PNCabyUsnHT04Rcjq1vU-55" style="edgeStyle=orthogonalEdgeStyle;rounded=0;orthogonalLoop=1;jettySize=auto;html=1;exitX=0.5;exitY=1;exitDx=0;exitDy=0;entryX=0.5;entryY=0;entryDx=0;entryDy=0;" parent="1" source="PNCabyUsnHT04Rcjq1vU-52" target="PNCabyUsnHT04Rcjq1vU-54" edge="1">
          <mxGeometry relative="1" as="geometry" />
        </mxCell>
        <mxCell id="PNCabyUsnHT04Rcjq1vU-52" value="Media = (Nota[1] + Nota[2])/2" style="rounded=0;whiteSpace=wrap;html=1;fillColor=#e1d5e7;strokeColor=#9673a6;" parent="1" vertex="1">
          <mxGeometry x="88.75" y="500" width="167.5" height="40" as="geometry" />
        </mxCell>
        <mxCell id="PNCabyUsnHT04Rcjq1vU-54" value="float Media" style="ellipse;whiteSpace=wrap;html=1;aspect=fixed;fillColor=#f8cecc;strokeColor=#b85450;" parent="1" vertex="1">
          <mxGeometry x="145" y="557" width="55" height="55" as="geometry" />
        </mxCell>
        <mxCell id="PNCabyUsnHT04Rcjq1vU-56" value="Conceito_Media" style="text;html=1;align=center;verticalAlign=middle;resizable=0;points=[];autosize=1;strokeColor=none;fillColor=none;fontSize=23;fontStyle=1" parent="1" vertex="1">
          <mxGeometry x="275" y="572" width="190" height="40" as="geometry" />
        </mxCell>
        <mxCell id="PNCabyUsnHT04Rcjq1vU-57" value="Entrada: float Media&lt;div&gt;Saída: char Conceito&lt;/div&gt;" style="text;html=1;align=center;verticalAlign=middle;resizable=0;points=[];autosize=1;strokeColor=none;fillColor=none;" parent="1" vertex="1">
          <mxGeometry x="300" y="610" width="140" height="40" as="geometry" />
        </mxCell>
        <mxCell id="PNCabyUsnHT04Rcjq1vU-60" style="edgeStyle=orthogonalEdgeStyle;rounded=0;orthogonalLoop=1;jettySize=auto;html=1;exitX=0.5;exitY=1;exitDx=0;exitDy=0;entryX=0.5;entryY=0;entryDx=0;entryDy=0;" parent="1" source="PNCabyUsnHT04Rcjq1vU-58" target="PNCabyUsnHT04Rcjq1vU-59" edge="1">
          <mxGeometry relative="1" as="geometry" />
        </mxCell>
        <mxCell id="PNCabyUsnHT04Rcjq1vU-58" value="" style="ellipse;whiteSpace=wrap;html=1;aspect=fixed;fillColor=#d5e8d4;strokeColor=#82b366;" parent="1" vertex="1">
          <mxGeometry x="350" y="650" width="40" height="40" as="geometry" />
        </mxCell>
        <mxCell id="PNCabyUsnHT04Rcjq1vU-64" style="edgeStyle=orthogonalEdgeStyle;rounded=0;orthogonalLoop=1;jettySize=auto;html=1;exitX=1;exitY=0.5;exitDx=0;exitDy=0;entryX=0.5;entryY=0;entryDx=0;entryDy=0;" parent="1" source="PNCabyUsnHT04Rcjq1vU-59" target="PNCabyUsnHT04Rcjq1vU-61" edge="1">
          <mxGeometry relative="1" as="geometry" />
        </mxCell>
        <mxCell id="PNCabyUsnHT04Rcjq1vU-69" style="edgeStyle=orthogonalEdgeStyle;rounded=0;orthogonalLoop=1;jettySize=auto;html=1;exitX=0;exitY=0.5;exitDx=0;exitDy=0;entryX=0.5;entryY=0;entryDx=0;entryDy=0;" parent="1" source="PNCabyUsnHT04Rcjq1vU-59" target="PNCabyUsnHT04Rcjq1vU-68" edge="1">
          <mxGeometry relative="1" as="geometry" />
        </mxCell>
        <mxCell id="g3EGvcMiDVE8emgf3wti-1" value="V" style="edgeLabel;html=1;align=center;verticalAlign=middle;resizable=0;points=[];" vertex="1" connectable="0" parent="PNCabyUsnHT04Rcjq1vU-69">
          <mxGeometry x="-0.425" y="-2" relative="1" as="geometry">
            <mxPoint as="offset" />
          </mxGeometry>
        </mxCell>
        <mxCell id="PNCabyUsnHT04Rcjq1vU-59" value="Media &amp;lt; 5" style="rhombus;whiteSpace=wrap;html=1;fillColor=#ffe6cc;strokeColor=#d79b00;" parent="1" vertex="1">
          <mxGeometry x="330" y="710" width="80" height="80" as="geometry" />
        </mxCell>
        <mxCell id="PNCabyUsnHT04Rcjq1vU-66" style="edgeStyle=orthogonalEdgeStyle;rounded=0;orthogonalLoop=1;jettySize=auto;html=1;exitX=1;exitY=0.5;exitDx=0;exitDy=0;entryX=0.5;entryY=0;entryDx=0;entryDy=0;" parent="1" source="PNCabyUsnHT04Rcjq1vU-61" target="PNCabyUsnHT04Rcjq1vU-65" edge="1">
          <mxGeometry relative="1" as="geometry" />
        </mxCell>
        <mxCell id="PNCabyUsnHT04Rcjq1vU-71" style="edgeStyle=orthogonalEdgeStyle;rounded=0;orthogonalLoop=1;jettySize=auto;html=1;exitX=0;exitY=0.5;exitDx=0;exitDy=0;" parent="1" source="PNCabyUsnHT04Rcjq1vU-61" target="PNCabyUsnHT04Rcjq1vU-70" edge="1">
          <mxGeometry relative="1" as="geometry" />
        </mxCell>
        <mxCell id="PNCabyUsnHT04Rcjq1vU-61" value="Media &amp;lt; 7" style="rhombus;whiteSpace=wrap;html=1;fillColor=#ffe6cc;strokeColor=#d79b00;" parent="1" vertex="1">
          <mxGeometry x="410" y="770" width="80" height="80" as="geometry" />
        </mxCell>
        <mxCell id="PNCabyUsnHT04Rcjq1vU-73" style="edgeStyle=orthogonalEdgeStyle;rounded=0;orthogonalLoop=1;jettySize=auto;html=1;exitX=0;exitY=0.5;exitDx=0;exitDy=0;entryX=0.5;entryY=0;entryDx=0;entryDy=0;" parent="1" source="PNCabyUsnHT04Rcjq1vU-65" target="PNCabyUsnHT04Rcjq1vU-72" edge="1">
          <mxGeometry relative="1" as="geometry" />
        </mxCell>
        <mxCell id="PNCabyUsnHT04Rcjq1vU-75" style="edgeStyle=orthogonalEdgeStyle;rounded=0;orthogonalLoop=1;jettySize=auto;html=1;exitX=1;exitY=0.5;exitDx=0;exitDy=0;entryX=0.5;entryY=0;entryDx=0;entryDy=0;" parent="1" source="PNCabyUsnHT04Rcjq1vU-65" target="PNCabyUsnHT04Rcjq1vU-74" edge="1">
          <mxGeometry relative="1" as="geometry" />
        </mxCell>
        <mxCell id="PNCabyUsnHT04Rcjq1vU-65" value="Media &amp;lt; 9" style="rhombus;whiteSpace=wrap;html=1;fillColor=#ffe6cc;strokeColor=#d79b00;" parent="1" vertex="1">
          <mxGeometry x="490" y="830" width="80" height="80" as="geometry" />
        </mxCell>
        <mxCell id="PNCabyUsnHT04Rcjq1vU-84" style="edgeStyle=orthogonalEdgeStyle;rounded=0;orthogonalLoop=1;jettySize=auto;html=1;exitX=0.5;exitY=1;exitDx=0;exitDy=0;entryX=0;entryY=0.5;entryDx=0;entryDy=0;" parent="1" source="PNCabyUsnHT04Rcjq1vU-68" target="PNCabyUsnHT04Rcjq1vU-80" edge="1">
          <mxGeometry relative="1" as="geometry" />
        </mxCell>
        <mxCell id="PNCabyUsnHT04Rcjq1vU-68" value="Conceito = &quot;D&quot;" style="rounded=0;whiteSpace=wrap;html=1;fillColor=#e1d5e7;strokeColor=#9673a6;" parent="1" vertex="1">
          <mxGeometry x="230" y="780" width="100" height="40" as="geometry" />
        </mxCell>
        <mxCell id="PNCabyUsnHT04Rcjq1vU-82" style="edgeStyle=orthogonalEdgeStyle;rounded=0;orthogonalLoop=1;jettySize=auto;html=1;exitX=0.5;exitY=1;exitDx=0;exitDy=0;entryX=0;entryY=0.5;entryDx=0;entryDy=0;" parent="1" source="PNCabyUsnHT04Rcjq1vU-70" target="PNCabyUsnHT04Rcjq1vU-79" edge="1">
          <mxGeometry relative="1" as="geometry" />
        </mxCell>
        <mxCell id="PNCabyUsnHT04Rcjq1vU-70" value="Conceito = &quot;C&quot;" style="rounded=0;whiteSpace=wrap;html=1;fillColor=#e1d5e7;strokeColor=#9673a6;" parent="1" vertex="1">
          <mxGeometry x="320" y="850" width="100" height="40" as="geometry" />
        </mxCell>
        <mxCell id="PNCabyUsnHT04Rcjq1vU-78" style="edgeStyle=orthogonalEdgeStyle;rounded=0;orthogonalLoop=1;jettySize=auto;html=1;exitX=0.5;exitY=1;exitDx=0;exitDy=0;entryX=0;entryY=0.5;entryDx=0;entryDy=0;" parent="1" source="PNCabyUsnHT04Rcjq1vU-72" target="PNCabyUsnHT04Rcjq1vU-76" edge="1">
          <mxGeometry relative="1" as="geometry" />
        </mxCell>
        <mxCell id="PNCabyUsnHT04Rcjq1vU-72" value="Conceito = &quot;B&quot;" style="rounded=0;whiteSpace=wrap;html=1;fillColor=#e1d5e7;strokeColor=#9673a6;" parent="1" vertex="1">
          <mxGeometry x="400" y="920" width="100" height="40" as="geometry" />
        </mxCell>
        <mxCell id="PNCabyUsnHT04Rcjq1vU-77" style="edgeStyle=orthogonalEdgeStyle;rounded=0;orthogonalLoop=1;jettySize=auto;html=1;exitX=0.5;exitY=1;exitDx=0;exitDy=0;entryX=1;entryY=0.5;entryDx=0;entryDy=0;" parent="1" source="PNCabyUsnHT04Rcjq1vU-74" target="PNCabyUsnHT04Rcjq1vU-76" edge="1">
          <mxGeometry relative="1" as="geometry" />
        </mxCell>
        <mxCell id="PNCabyUsnHT04Rcjq1vU-74" value="Conceito = &quot;A&quot;" style="rounded=0;whiteSpace=wrap;html=1;fillColor=#e1d5e7;strokeColor=#9673a6;" parent="1" vertex="1">
          <mxGeometry x="560" y="920" width="100" height="40" as="geometry" />
        </mxCell>
        <mxCell id="PNCabyUsnHT04Rcjq1vU-81" style="edgeStyle=orthogonalEdgeStyle;rounded=0;orthogonalLoop=1;jettySize=auto;html=1;exitX=0.5;exitY=1;exitDx=0;exitDy=0;entryX=1;entryY=0.5;entryDx=0;entryDy=0;" parent="1" source="PNCabyUsnHT04Rcjq1vU-76" target="PNCabyUsnHT04Rcjq1vU-79" edge="1">
          <mxGeometry relative="1" as="geometry">
            <Array as="points">
              <mxPoint x="530" y="1015" />
            </Array>
          </mxGeometry>
        </mxCell>
        <mxCell id="PNCabyUsnHT04Rcjq1vU-76" value="" style="ellipse;whiteSpace=wrap;html=1;aspect=fixed;fillColor=#ffe6cc;strokeColor=#d79b00;" parent="1" vertex="1">
          <mxGeometry x="515" y="970" width="30" height="30" as="geometry" />
        </mxCell>
        <mxCell id="PNCabyUsnHT04Rcjq1vU-83" style="edgeStyle=orthogonalEdgeStyle;rounded=0;orthogonalLoop=1;jettySize=auto;html=1;exitX=0.5;exitY=1;exitDx=0;exitDy=0;entryX=1;entryY=0.5;entryDx=0;entryDy=0;" parent="1" source="PNCabyUsnHT04Rcjq1vU-79" target="PNCabyUsnHT04Rcjq1vU-80" edge="1">
          <mxGeometry relative="1" as="geometry">
            <Array as="points">
              <mxPoint x="455" y="1045" />
            </Array>
          </mxGeometry>
        </mxCell>
        <mxCell id="PNCabyUsnHT04Rcjq1vU-79" value="" style="ellipse;whiteSpace=wrap;html=1;aspect=fixed;fillColor=#ffe6cc;strokeColor=#d79b00;" parent="1" vertex="1">
          <mxGeometry x="440" y="1000" width="30" height="30" as="geometry" />
        </mxCell>
        <mxCell id="PNCabyUsnHT04Rcjq1vU-86" style="edgeStyle=orthogonalEdgeStyle;rounded=0;orthogonalLoop=1;jettySize=auto;html=1;exitX=0.5;exitY=1;exitDx=0;exitDy=0;entryX=0.5;entryY=0;entryDx=0;entryDy=0;" parent="1" source="PNCabyUsnHT04Rcjq1vU-80" target="PNCabyUsnHT04Rcjq1vU-85" edge="1">
          <mxGeometry relative="1" as="geometry" />
        </mxCell>
        <mxCell id="PNCabyUsnHT04Rcjq1vU-80" value="" style="ellipse;whiteSpace=wrap;html=1;aspect=fixed;fillColor=#ffe6cc;strokeColor=#d79b00;" parent="1" vertex="1">
          <mxGeometry x="355" y="1030" width="30" height="30" as="geometry" />
        </mxCell>
        <mxCell id="PNCabyUsnHT04Rcjq1vU-85" value="char Conceito" style="ellipse;whiteSpace=wrap;html=1;aspect=fixed;fillColor=#f8cecc;strokeColor=#b85450;" parent="1" vertex="1">
          <mxGeometry x="335" y="1078" width="70" height="70" as="geometry" />
        </mxCell>
      </root>
    </mxGraphModel>
  </diagram>
</mxfile>
